<svg xmlns="http://www.w3.org/2000/svg" xmlns:xlink="http://www.w3.org/1999/xlink" width="10800px" height="6312px" viewBox="0 0 10800 6312.212048853513">
    <g id="eb2c51c4-60e8-4fcc-b66e-7267b83bfd07">

</g>

        <g id="bdd4b28f-a40f-412a-8d94-ec756dd17dfa" name="New Group">
          <g style="" id="499ce096-f0a6-410e-b226-a8dbcdd805b7">
<g style=""><path d="M-27.64800 12.53808L-27.64800 -27.78192L-16.63200 -27.78192L-16.63200 17.57808Q-16.63200 19.66608 -18.10800 21.14208Q-19.58400 22.61808 -21.67200 22.61808L-37.72800 22.61808Q-39.81600 22.61808 -41.29200 21.14208Q-42.76800 19.66608 -42.76800 17.57808L-42.76800 -27.78192L-31.75200 -27.78192L-31.75200 12.53808Z" fill="none" transform="matrix(83.488071 0 0 83.488071 6815.644522 3396.294728) translate(0 0)"></path><path d="M8.06400 -27.78192Q10.15200 -27.78192 11.62800 -26.30592Q13.10400 -24.82992 13.10400 -22.74192L13.10400 -7.62192Q13.10400 -5.53392 11.62800 -4.05792Q10.15200 -2.58192 8.06400 -2.58192Q10.15200 -2.58192 11.62800 -1.10592Q13.10400 0.37008 13.10400 2.45808L13.10400 22.61808L2.08800 22.61808L2.08800 2.45808L-2.01600 2.45808L-2.01600 22.61808L-13.03200 22.61808L-13.03200 -27.78192ZM-2.01600 -7.62192L2.08800 -7.62192L2.08800 -17.70192L-2.01600 -17.70192Z" fill="none" transform="matrix(83.488071 0 0 83.488071 6815.644522 3396.294728) translate(0 0)"></path><path d="M37.65600 -27.78192Q39.74400 -27.78192 41.22000 -26.30592Q42.69600 -24.82992 42.69600 -22.74192L42.69600 22.61808L31.68000 22.61808L31.68000 -17.70192L27.57600 -17.70192L27.57600 22.61808L16.56000 22.61808L16.56000 -22.74192Q16.56000 -24.82992 18.03600 -26.30592Q19.51200 -27.78192 21.60000 -27.78192Z" fill="none" transform="matrix(83.488071 0 0 83.488071 6815.644522 3396.294728) translate(0 0)"></path><g clip-path="url(#clip-c716be1b-7685-4286-9c67-4149250b8388)"><clipPath id="clip-c716be1b-7685-4286-9c67-4149250b8388"><path d="M-27.64800 12.53808L-27.64800 -27.78192L-16.63200 -27.78192L-16.63200 17.57808Q-16.63200 19.66608 -18.10800 21.14208Q-19.58400 22.61808 -21.67200 22.61808L-37.72800 22.61808Q-39.81600 22.61808 -41.29200 21.14208Q-42.76800 19.66608 -42.76800 17.57808L-42.76800 -27.78192L-31.75200 -27.78192L-31.75200 12.53808Z" fill="none" transform="matrix(83.488071 0 0 83.488071 6815.644522 3396.294728) translate(0 0)"></path></clipPath><path d="M-27.64800 12.53808L-27.64800 -27.78192L-16.63200 -27.78192L-16.63200 17.57808Q-16.63200 19.66608 -18.10800 21.14208Q-19.58400 22.61808 -21.67200 22.61808L-37.72800 22.61808Q-39.81600 22.61808 -41.29200 21.14208Q-42.76800 19.66608 -42.76800 17.57808L-42.76800 -27.78192L-31.75200 -27.78192L-31.75200 12.53808Z" stroke="rgb(0,0,0)" stroke-opacity="1.00" stroke-width="5.965390576577101" fill="none" transform="matrix(83.488071 0 0 83.488071 6815.644522 3396.294728) translate(0 0)"></path></g><g clip-path="url(#clip-b7e6d91f-ca3d-4724-84e2-3f3829ea291d)"><clipPath id="clip-b7e6d91f-ca3d-4724-84e2-3f3829ea291d"><path d="M8.06400 -27.78192Q10.15200 -27.78192 11.62800 -26.30592Q13.10400 -24.82992 13.10400 -22.74192L13.10400 -7.62192Q13.10400 -5.53392 11.62800 -4.05792Q10.15200 -2.58192 8.06400 -2.58192Q10.15200 -2.58192 11.62800 -1.10592Q13.10400 0.37008 13.10400 2.45808L13.10400 22.61808L2.08800 22.61808L2.08800 2.45808L-2.01600 2.45808L-2.01600 22.61808L-13.03200 22.61808L-13.03200 -27.78192ZM-2.01600 -7.62192L2.08800 -7.62192L2.08800 -17.70192L-2.01600 -17.70192Z" fill="none" transform="matrix(83.488071 0 0 83.488071 6815.644522 3396.294728) translate(0 0)"></path></clipPath><path d="M8.06400 -27.78192Q10.15200 -27.78192 11.62800 -26.30592Q13.10400 -24.82992 13.10400 -22.74192L13.10400 -7.62192Q13.10400 -5.53392 11.62800 -4.05792Q10.15200 -2.58192 8.06400 -2.58192Q10.15200 -2.58192 11.62800 -1.10592Q13.10400 0.37008 13.10400 2.45808L13.10400 22.61808L2.08800 22.61808L2.08800 2.45808L-2.01600 2.45808L-2.01600 22.61808L-13.03200 22.61808L-13.03200 -27.78192ZM-2.01600 -7.62192L2.08800 -7.62192L2.08800 -17.70192L-2.01600 -17.70192Z" stroke="rgb(0,0,0)" stroke-opacity="1.00" stroke-width="5.965390576577101" fill="none" transform="matrix(83.488071 0 0 83.488071 6815.644522 3396.294728) translate(0 0)"></path></g><g clip-path="url(#clip-39a2b583-c5de-4e6c-a9b5-fe3dd0e5f408)"><clipPath id="clip-39a2b583-c5de-4e6c-a9b5-fe3dd0e5f408"><path d="M37.65600 -27.78192Q39.74400 -27.78192 41.22000 -26.30592Q42.69600 -24.82992 42.69600 -22.74192L42.69600 22.61808L31.68000 22.61808L31.68000 -17.70192L27.57600 -17.70192L27.57600 22.61808L16.56000 22.61808L16.56000 -22.74192Q16.56000 -24.82992 18.03600 -26.30592Q19.51200 -27.78192 21.60000 -27.78192Z" fill="none" transform="matrix(83.488071 0 0 83.488071 6815.644522 3396.294728) translate(0 0)"></path></clipPath><path d="M37.65600 -27.78192Q39.74400 -27.78192 41.22000 -26.30592Q42.69600 -24.82992 42.69600 -22.74192L42.69600 22.61808L31.68000 22.61808L31.68000 -17.70192L27.57600 -17.70192L27.57600 22.61808L16.56000 22.61808L16.56000 -22.74192Q16.56000 -24.82992 18.03600 -26.30592Q19.51200 -27.78192 21.60000 -27.78192Z" stroke="rgb(0,0,0)" stroke-opacity="1.00" stroke-width="5.965390576577101" fill="none" transform="matrix(83.488071 0 0 83.488071 6815.644522 3396.294728) translate(0 0)"></path></g></g></g>

<g style="" id="6b1f5648-2a85-461e-ab33-facf51241c35">
<g style=""><path d="M-486.68811 -13.71788L-472.78112 -13.71788C-467.66717 -13.71788 -464.61352 -10.40669 -464.61352 -5.40312C-464.61352 -0.28918 -467.77755 3.02201 -472.92828 3.02201L-480.10252 3.02201L-480.10252 11.55752L-486.68811 11.55752ZM-474.47350 -2.05514C-472.41321 -2.05514 -471.30948 -3.23245 -471.30948 -5.32954C-471.30948 -7.46342 -472.37642 -8.60394 -474.47350 -8.60394L-480.10252 -8.60394L-480.10252 -2.05514Z" fill="rgb(0,0,0)" fill-opacity="1.00" transform="matrix(10.319734 0 0 10.319734 5347.992633 5633.438791) translate(0 0)"></path><path d="M-438.40008 -13.71788L-417.53960 -13.71788L-417.53960 -8.56715L-431.81450 -8.56715L-431.81450 -3.82111L-419.34236 -3.82111L-419.34236 1.21925L-431.81450 1.21925L-431.81450 6.40678L-417.28206 6.40678L-417.28206 11.55752L-438.40008 11.55752Z" fill="rgb(0,0,0)" fill-opacity="1.00" transform="matrix(10.319734 0 0 10.319734 5347.992633 5633.438791) translate(0 0)"></path><path d="M-390.22243 -13.71788L-375.54283 -13.71788C-369.91381 -13.71788 -367.11770 -10.25953 -367.11770 -5.73424C-367.11770 -2.49664 -368.69971 0.15231 -371.38545 1.55037L-366.30830 11.55752L-373.66649 11.55752L-377.86066 2.65410L-383.63685 2.65410L-383.63685 11.55752L-390.22243 11.55752ZM-376.79373 -2.23910C-375.02776 -2.23910 -373.81366 -3.52678 -373.81366 -5.55029C-373.81366 -7.46342 -374.95418 -8.71431 -376.79373 -8.71431L-383.63685 -8.71431L-383.63685 -2.23910Z" fill="rgb(0,0,0)" fill-opacity="1.00" transform="matrix(10.319734 0 0 10.319734 5347.992633 5633.438791) translate(0 0)"></path><path d="M-340.09486 -13.71788L-320.70602 -13.71788L-320.70602 -8.56715L-333.50927 -8.56715L-333.50927 -3.12208L-322.25124 -3.12208L-322.25124 1.91828L-333.50927 1.91828L-333.50927 11.55752L-340.09486 11.55752Z" fill="rgb(0,0,0)" fill-opacity="1.00" transform="matrix(10.319734 0 0 10.319734 5347.992633 5633.438791) translate(0 0)"></path><path d="M-281.83648 11.99901C-290.15124 11.99901 -295.08123 7.65767 -295.08123 -1.09858C-295.08123 -9.81804 -290.15124 -14.15937 -281.83648 -14.15937C-273.55851 -14.15937 -268.59173 -9.81804 -268.59173 -1.09858C-268.59173 7.65767 -273.55851 11.99901 -281.83648 11.99901ZM-281.83648 6.84827C-277.60552 6.84827 -275.36127 4.19932 -275.36127 -0.25239L-275.36127 -1.90798C-275.36127 -6.35969 -277.60552 -9.00864 -281.83648 -9.00864C-286.10423 -9.00864 -288.31169 -6.35969 -288.31169 -1.90798L-288.31169 -0.25239C-288.31169 4.19932 -286.10423 6.84827 -281.83648 6.84827Z" fill="rgb(0,0,0)" fill-opacity="1.00" transform="matrix(10.319734 0 0 10.319734 5347.992633 5633.438791) translate(0 0)"></path><path d="M-241.64247 -13.71788L-226.96287 -13.71788C-221.33385 -13.71788 -218.53774 -10.25953 -218.53774 -5.73424C-218.53774 -2.49664 -220.11975 0.15231 -222.80549 1.55037L-217.72834 11.55752L-225.08653 11.55752L-229.28070 2.65410L-235.05689 2.65410L-235.05689 11.55752L-241.64247 11.55752ZM-228.21377 -2.23910C-226.44780 -2.23910 -225.23370 -3.52678 -225.23370 -5.55029C-225.23370 -7.46342 -226.37422 -8.71431 -228.21377 -8.71431L-235.05689 -8.71431L-235.05689 -2.23910Z" fill="rgb(0,0,0)" fill-opacity="1.00" transform="matrix(10.319734 0 0 10.319734 5347.992633 5633.438791) translate(0 0)"></path><path d="M-191.51490 -13.71788L-181.91245 -13.71788L-178.85880 -2.45984C-178.49089 -1.24574 -177.82866 1.47679 -177.46075 3.24276L-177.16642 3.24276C-176.87209 1.84470 -176.32023 -0.58350 -175.84194 -2.49664L-172.75150 -13.71788L-163.40660 -13.71788L-163.40660 11.55752L-169.80823 11.55752L-169.80823 0.77776C-169.80823 -2.34947 -169.73464 -6.02857 -169.69785 -7.27946L-169.99218 -7.27946C-170.21293 -6.13894 -170.91195 -3.19566 -171.35345 -1.57686L-175.03254 11.55752L-180.33044 11.55752L-184.04633 -1.57686C-184.45103 -3.04850 -185.07648 -5.69745 -185.37081 -7.24267L-185.66513 -7.24267C-185.59155 -5.32954 -185.51797 -1.83440 -185.51797 0.77776L-185.51797 11.55752L-191.51490 11.55752Z" fill="rgb(0,0,0)" fill-opacity="1.00" transform="matrix(10.319734 0 0 10.319734 5347.992633 5633.438791) translate(0 0)"></path><path d="M-128.32653 -13.71788L-120.41647 -13.71788L-110.92440 11.55752L-117.95148 11.55752L-119.45991 7.17939L-129.54063 7.17939L-131.04906 11.55752L-137.81860 11.55752ZM-121.07871 2.24940L-122.88147 -3.08529C-123.24938 -4.15223 -123.98520 -6.54364 -124.38990 -7.97849L-124.64743 -7.97849C-125.01534 -6.58043 -125.71437 -4.40977 -126.11907 -3.08529L-127.95862 2.24940Z" fill="rgb(0,0,0)" fill-opacity="1.00" transform="matrix(10.319734 0 0 10.319734 5347.992633 5633.438791) translate(0 0)"></path><path d="M-85.33641 -13.71788L-79.48664 -13.71788L-70.28890 -1.98156C-69.77383 -1.35612 -68.59651 0.22590 -68.19181 0.88813L-68.00786 0.85134L-68.00786 -13.71788L-61.90056 -13.71788L-61.90056 11.55752L-67.71353 11.55752L-77.46314 -0.80425C-78.12538 -1.57686 -78.67724 -2.49664 -79.04515 -3.04850L-79.22911 -3.01171L-79.22911 11.55752L-85.33641 11.55752Z" fill="rgb(0,0,0)" fill-opacity="1.00" transform="matrix(10.319734 0 0 10.319734 5347.992633 5633.438791) translate(0 0)"></path><path d="M-22.22162 11.99901C-30.46280 11.99901 -34.95130 7.76805 -34.95130 -1.09858C-34.95130 -9.81804 -30.46280 -14.15937 -22.22162 -14.15937C-15.37850 -14.15937 -10.52209 -10.66423 -10.52209 -3.82111L-16.96051 -3.82111C-16.96051 -7.05872 -18.98402 -9.00864 -22.22162 -9.00864C-26.37900 -9.00864 -28.18176 -6.35969 -28.18176 -1.90798L-28.18176 -0.25239C-28.18176 4.27290 -26.37900 6.84827 -22.25841 6.84827C-18.76327 6.84827 -16.73977 5.00872 -16.73977 1.73433L-10.52209 1.73433C-10.52209 8.54066 -15.12096 11.99901 -22.22162 11.99901Z" fill="rgb(0,0,0)" fill-opacity="1.00" transform="matrix(10.319734 0 0 10.319734 5347.992633 5633.438791) translate(0 0)"></path><path d="M16.42717 -13.71788L37.28765 -13.71788L37.28765 -8.56715L23.01275 -8.56715L23.01275 -3.82111L35.48489 -3.82111L35.48489 1.21925L23.01275 1.21925L23.01275 6.40678L37.54519 6.40678L37.54519 11.55752L16.42717 11.55752Z" fill="rgb(0,0,0)" fill-opacity="1.00" transform="matrix(10.319734 0 0 10.319734 5347.992633 5633.438791) translate(0 0)"></path><path d="M105.60823 11.99901C97.47743 11.99901 93.13609 7.73125 93.13609 -1.09858C93.13609 -9.81804 98.02929 -14.15937 106.49121 -14.15937C113.29754 -14.15937 118.88977 -11.06893 118.88977 -4.81447L112.41456 -4.81447C112.41456 -7.50021 109.80240 -9.00864 106.74875 -9.00864C102.14988 -9.00864 99.90563 -6.54364 99.90563 -1.90798L99.90563 -0.25239C99.90563 4.45686 102.11309 6.84827 106.52801 6.84827C109.87598 6.84827 112.48814 5.26626 112.48814 2.50694L112.48814 2.32298L105.68181 2.32298L105.68181 -2.31268L118.88977 -2.31268L118.88977 11.55752L115.06351 11.55752L114.43806 8.90857C112.19382 11.00565 109.43449 11.99901 105.60823 11.99901Z" fill="rgb(0,0,0)" fill-opacity="1.00" transform="matrix(10.319734 0 0 10.319734 5347.992633 5633.438791) translate(0 0)"></path><path d="M158.75266 11.99901C150.43790 11.99901 145.50791 7.65767 145.50791 -1.09858C145.50791 -9.81804 150.43790 -14.15937 158.75266 -14.15937C167.03063 -14.15937 171.99741 -9.81804 171.99741 -1.09858C171.99741 7.65767 167.03063 11.99901 158.75266 11.99901ZM158.75266 6.84827C162.98363 6.84827 165.22787 4.19932 165.22787 -0.25239L165.22787 -1.90798C165.22787 -6.35969 162.98363 -9.00864 158.75266 -9.00864C154.48491 -9.00864 152.27745 -6.35969 152.27745 -1.90798L152.27745 -0.25239C152.27745 4.19932 154.48491 6.84827 158.75266 6.84827Z" fill="rgb(0,0,0)" fill-opacity="1.00" transform="matrix(10.319734 0 0 10.319734 5347.992633 5633.438791) translate(0 0)"></path><path d="M198.94667 -13.71788L205.53226 -13.71788L205.53226 6.14924L218.37231 6.14924L218.37231 11.55752L198.94667 11.55752Z" fill="rgb(0,0,0)" fill-opacity="1.00" transform="matrix(10.319734 0 0 10.319734 5347.992633 5633.438791) translate(0 0)"></path><path d="M244.40179 -13.71788L263.79063 -13.71788L263.79063 -8.56715L250.98738 -8.56715L250.98738 -3.12208L262.24541 -3.12208L262.24541 1.91828L250.98738 1.91828L250.98738 11.55752L244.40179 11.55752Z" fill="rgb(0,0,0)" fill-opacity="1.00" transform="matrix(10.319734 0 0 10.319734 5347.992633 5633.438791) translate(0 0)"></path><path d="M330.71316 11.99901C322.47198 11.99901 317.98348 7.76805 317.98348 -1.09858C317.98348 -9.81804 322.47198 -14.15937 330.71316 -14.15937C337.55628 -14.15937 342.41269 -10.66423 342.41269 -3.82111L335.97427 -3.82111C335.97427 -7.05872 333.95077 -9.00864 330.71316 -9.00864C326.55578 -9.00864 324.75302 -6.35969 324.75302 -1.90798L324.75302 -0.25239C324.75302 4.27290 326.55578 6.84827 330.67637 6.84827C334.17151 6.84827 336.19502 5.00872 336.19502 1.73433L342.41269 1.73433C342.41269 8.54066 337.81382 11.99901 330.71316 11.99901Z" fill="rgb(0,0,0)" fill-opacity="1.00" transform="matrix(10.319734 0 0 10.319734 5347.992633 5633.438791) translate(0 0)"></path><path d="M369.28837 -13.71788L375.87395 -13.71788L375.87395 6.14924L388.71400 6.14924L388.71400 11.55752L369.28837 11.55752Z" fill="rgb(0,0,0)" fill-opacity="1.00" transform="matrix(10.319734 0 0 10.319734 5347.992633 5633.438791) translate(0 0)"></path><path d="M425.08175 11.99901C417.72356 11.99901 413.38222 8.54066 413.38222 1.73433L413.38222 -13.71788L420.00460 -13.71788L420.00460 1.62395C420.00460 4.89835 421.77056 6.84827 425.08175 6.84827C428.39294 6.84827 430.23249 4.89835 430.23249 1.62395L430.23249 -13.71788L436.81807 -13.71788L436.81807 1.73433C436.81807 8.54066 432.47674 11.99901 425.08175 11.99901Z" fill="rgb(0,0,0)" fill-opacity="1.00" transform="matrix(10.319734 0 0 10.319734 5347.992633 5633.438791) translate(0 0)"></path><path d="M464.79748 -13.71788L480.24969 -13.71788C484.14953 -13.71788 487.23997 -11.17930 487.23997 -7.50021C487.23997 -4.18902 485.36363 -2.38626 483.04580 -1.65044L483.04580 -1.50328C485.76833 -0.91462 487.90221 1.03530 487.90221 4.71439C487.90221 9.09252 484.55423 11.55752 480.36006 11.55752L464.79748 11.55752ZM477.96865 -3.67395C479.58745 -3.67395 480.54401 -4.70409 480.54401 -6.32290C480.54401 -7.90491 479.51387 -8.82468 478.07902 -8.82468L471.38306 -8.82468L471.38306 -3.67395ZM478.55730 6.48036C480.10252 6.48036 481.16946 5.59738 481.16946 3.64746C481.16946 2.10224 480.17610 0.99851 478.44693 0.99851L471.38306 0.99851L471.38306 6.48036Z" fill="rgb(0,0,0)" fill-opacity="1.00" transform="matrix(10.319734 0 0 10.319734 5347.992633 5633.438791) translate(0 0)"></path></g></g>

<g id="25386776-7b17-43e9-a78c-add453f1d98b">
<g style="">
		<g id="25386776-7b17-43e9-a78c-add453f1d98b-child-0">
<path style="stroke: rgb(193,193,193); stroke-opacity: 1.00; stroke-width: 0; stroke-dasharray: none; stroke-linecap: butt; stroke-dashoffset: 0; stroke-linejoin: miter; stroke-miterlimit: 4; fill: rgb(0,0,0); fill-opacity: 1.00; fill-rule: nonzero; opacity: 1;" transform="matrix(0.974355 0 0 0.974355 2732.488959 2787.985278) matrix(1 0 0 1 0 -479.707045)  translate(-3276.764618, -5157.55767)" d="M 2360.84 6597.28 C 2315.71 6695.14 2300.68 6795.12 2307.78 6900.29 C 2309.83 6930.69 2302.45 6948.02 2283.82 6970.13 C 2211.51 7055.97 2145.09 7143.66 2087.30 7240.21 C 2015.24 7240.17 2006.54 7094.83 2008.48 7008.30 L 2012.42 6832.51 C 2016.21 6663.29 2063.51 6506.18 2149.94 6361.90 C 2225.74 6235.36 2308.00 6120.02 2410.75 6014.11 L 2753.54 5660.77 L 2932.00 5473.04 C 3054.26 5344.43 3141.64 5195.94 3195.06 5025.85 L 3282.98 4857.20 C 3328.54 4769.82 3382.72 4690.98 3467.91 4630.00 C 3352.20 4552.58 3252.37 4461.39 3169.56 4344.15 L 3038.36 4606.44 L 2854.43 4963.34 C 2771.27 5106.38 2672.69 5230.88 2558.58 5350.77 L 2179.44 5714.89 L 2035.89 5855.96 C 2027.30 5864.41 2019.71 5871.57 2007.82 5868.75 L 2002.37 4980.28 C 1992.73 4898.82 1948.80 4832.00 1868.90 4814.26 L 850.31 4813.42 C 809.90 4813.39 785.61 4779.91 785.14 4742.81 L 778.71 4241.94 L 777.20 3613.76 C 777.08 3563.30 810.68 3531.63 862.98 3531.70 L 3049.35 3534.42 C 3136.29 3319.63 3318.97 3162.55 3543.50 3102.44 C 3765.25 3043.08 3994.16 3081.81 4191.82 3198.25 C 4326.89 3284.20 4443.30 3394.48 4525.70 3532.16 C 4546.26 3566.51 4559.35 3598.55 4594.00 3621.65 L 4792.84 3754.26 L 5411.58 4135.33 L 5691.86 4315.50 L 5767.69 4374.99 C 5774.14 4380.05 5776.77 4387.15 5776.27 4392.85 C 5775.71 4399.17 5765.13 4402.76 5757.28 4401.17 L 5517.73 4352.60 L 4693.01 4123.17 L 3961.58 3908.14 L 3820.07 3853.35 C 3814.13 3851.05 3810.86 3843.70 3811.51 3839.60 C 3812.26 3834.88 3817.82 3830.68 3824.34 3828.66 L 4076.19 3750.68 C 4130.04 3734.01 4183.00 3722.35 4235.79 3693.84 C 4207.88 3637.53 4165.53 3599.85 4121.84 3558.01 C 3963.87 3406.76 3724.29 3366.41 3531.78 3475.08 C 3421.08 3537.57 3338.61 3645.77 3330.24 3774.50 C 3317.51 3970.37 3407.57 4150.36 3554.70 4274.14 C 3636.86 4343.26 3721.14 4399.34 3818.07 4444.57 L 4098.92 4575.62 C 4138.39 4594.04 4173.99 4616.43 4199.30 4650.64 C 4230.84 4693.27 4229.60 4747.66 4192.40 4786.55 C 4109.01 4873.73 3939.66 4863.49 3825.82 4815.07 L 3707.66 4764.81 C 3608.19 4866.76 3510.31 4975.34 3463.04 5111.12 C 3395.05 5306.42 3303.85 5479.30 3168.16 5635.89 L 2837.34 5987.71 L 2542.22 6308.02 C 2463.83 6393.10 2410.53 6489.61 2360.87 6597.29 Z M 2308.28 5190.13 C 2443.04 5063.56 2537.65 4926.61 2622.35 4778.50 L 2821.37 4368.54 L 2907.98 4191.44 C 2939.32 4127.37 2980.77 4073.28 3028.43 4020.90 C 3008.92 3950.49 2997.66 3885.99 2992.34 3814.04 L 1187.21 3815.84 C 1127.13 3815.90 1078.44 3865.98 1078.36 3923.62 L 1077.57 4438.11 C 1077.48 4498.38 1123.38 4551.57 1187.03 4551.82 L 2212.71 4555.83 C 2275.00 4557.01 2306.62 4602.82 2306.79 4661.47 L 2308.29 5190.14 Z" stroke-linecap="round"></path>
</g>
		<g id="25386776-7b17-43e9-a78c-add453f1d98b-child-1">
<path style="stroke: rgb(193,193,193); stroke-opacity: 1.00; stroke-width: 0; stroke-dasharray: none; stroke-linecap: butt; stroke-dashoffset: 0; stroke-linejoin: miter; stroke-miterlimit: 4; fill: rgb(0,0,0); fill-opacity: 1.00; fill-rule: nonzero; opacity: 1;" transform="matrix(0.974355 0 0 0.974355 2732.488959 2787.985278) matrix(1 0 0 1 -509.801055 1228.740207)  translate(-2766.963563, -6866.004922)" d="M 3531.42 6942.69 L 3524.84 7582.90 C 3524.44 7621.80 3524.84 7657.50 3514.20 7694.72 C 3456.81 7895.64 3310.52 8060.78 3115.72 8138.33 C 3060.83 8160.18 3004.12 8168.67 2946.21 8172.52 L 2627.94 8193.65 L 2065.53 8199.62 C 2034.51 8199.95 2004.20 8180.29 2003.16 8146.93 C 1990.53 7742.24 2156.39 7362.21 2420.81 7059.10 L 2764.00 6699.39 L 3006.00 6440.34 C 3093.21 6346.98 3152.62 6236.19 3195.87 6115.48 C 3248.71 5967.98 3223.40 5823.76 3250.30 5791.62 C 3316.23 5712.86 3381.24 5637.19 3432.18 5547.72 C 3437.01 5539.24 3441.14 5533.26 3448.99 5532.44 C 3454.65 5531.85 3465.86 5536.07 3468.61 5545.24 C 3486.13 5603.75 3513.28 5660.16 3518.59 5723.44 C 3527.69 5831.84 3533.10 5939.78 3518.48 6048.48 C 3486.73 6284.60 3327.03 6535.04 3161.23 6704.32 L 2796.71 7076.49 C 2559.27 7318.92 2387.51 7550.18 2315.66 7888.50 C 2313.58 7898.31 2316.99 7908.62 2320.31 7913.50 C 2326.44 7922.52 2337.75 7920.29 2349.29 7920.26 L 2824.14 7918.96 C 3012.45 7918.44 3194.92 7795.31 3225.79 7602.48 C 3245.83 7477.30 3232.44 7351.18 3235.53 7225.68 C 3236.82 7173.14 3250.77 7137.17 3289.24 7101.62 L 3481.90 6923.60 C 3490.70 6915.47 3503.77 6915.03 3512.10 6918.55 C 3518.81 6921.38 3531.57 6930.15 3531.44 6942.69 Z" stroke-linecap="round"></path>
</g>
		<g id="25386776-7b17-43e9-a78c-add453f1d98b-child-2">
<path style="stroke: rgb(193,193,193); stroke-opacity: 1.00; stroke-width: 0; stroke-dasharray: none; stroke-linecap: butt; stroke-dashoffset: 0; stroke-linejoin: miter; stroke-miterlimit: 4; fill: rgb(4,4,4); fill-opacity: 1.00; fill-rule: nonzero; opacity: 1;" transform="matrix(0.974355 0 0 0.974355 2732.488959 2787.985278) matrix(1 0 0 1 440.742595 -1972.150279)  translate(-3717.507213, -3665.114437)" d="M 3682.60 3537.30 C 3758.09 3517.51 3828.49 3561.05 3846.07 3631.28 C 3863.85 3702.30 3823.92 3775.58 3748.30 3794.06 C 3683.07 3810.01 3611.33 3772.72 3590.36 3703.05 C 3570.09 3635.69 3605.66 3557.46 3682.60 3537.30 Z" stroke-linecap="round"></path>
</g>
</g>
</g>

        </g>
      
  </svg>