<svg xmlns="http://www.w3.org/2000/svg" xmlns:xlink="http://www.w3.org/1999/xlink" width="9212px" height="9212px" viewBox="0 0 9211.900841707306 9211.900841707333">
    <g id="27fd19d8-dc2f-4df2-bd9a-3284d0ac16c7">

</g>
<g id="0b6b49cb-dbe6-467f-a5c7-c71547df3017">
<g style="">
		<g id="0b6b49cb-dbe6-467f-a5c7-c71547df3017-child-0">
<path style="stroke: rgb(193,193,193); stroke-opacity: 1.00; stroke-width: 0; stroke-dasharray: none; stroke-linecap: butt; stroke-dashoffset: 0; stroke-linejoin: miter; stroke-miterlimit: 4; fill: rgb(243,113,35); fill-opacity: 1.00; fill-rule: nonzero; opacity: 1;" transform="matrix(1.764323 0 0 1.764323 4605.950396 4605.950339) matrix(1 0 0 1 0 -479.707045)  translate(-3276.764618, -5157.55767)" d="M 2360.84 6597.28 C 2315.71 6695.14 2300.68 6795.12 2307.78 6900.29 C 2309.83 6930.69 2302.45 6948.02 2283.82 6970.13 C 2211.51 7055.97 2145.09 7143.66 2087.30 7240.21 C 2015.24 7240.17 2006.54 7094.83 2008.48 7008.30 L 2012.42 6832.51 C 2016.21 6663.29 2063.51 6506.18 2149.94 6361.90 C 2225.74 6235.36 2308.00 6120.02 2410.75 6014.11 L 2753.54 5660.77 L 2932.00 5473.04 C 3054.26 5344.43 3141.64 5195.94 3195.06 5025.85 L 3282.98 4857.20 C 3328.54 4769.82 3382.72 4690.98 3467.91 4630.00 C 3352.20 4552.58 3252.37 4461.39 3169.56 4344.15 L 3038.36 4606.44 L 2854.43 4963.34 C 2771.27 5106.38 2672.69 5230.88 2558.58 5350.77 L 2179.44 5714.89 L 2035.89 5855.96 C 2027.30 5864.41 2019.71 5871.57 2007.82 5868.75 L 2002.37 4980.28 C 1992.73 4898.82 1948.80 4832.00 1868.90 4814.26 L 850.31 4813.42 C 809.90 4813.39 785.61 4779.91 785.14 4742.81 L 778.71 4241.94 L 777.20 3613.76 C 777.08 3563.30 810.68 3531.63 862.98 3531.70 L 3049.35 3534.42 C 3136.29 3319.63 3318.97 3162.55 3543.50 3102.44 C 3765.25 3043.08 3994.16 3081.81 4191.82 3198.25 C 4326.89 3284.20 4443.30 3394.48 4525.70 3532.16 C 4546.26 3566.51 4559.35 3598.55 4594.00 3621.65 L 4792.84 3754.26 L 5411.58 4135.33 L 5691.86 4315.50 L 5767.69 4374.99 C 5774.14 4380.05 5776.77 4387.15 5776.27 4392.85 C 5775.71 4399.17 5765.13 4402.76 5757.28 4401.17 L 5517.73 4352.60 L 4693.01 4123.17 L 3961.58 3908.14 L 3820.07 3853.35 C 3814.13 3851.05 3810.86 3843.70 3811.51 3839.60 C 3812.26 3834.88 3817.82 3830.68 3824.34 3828.66 L 4076.19 3750.68 C 4130.04 3734.01 4183.00 3722.35 4235.79 3693.84 C 4207.88 3637.53 4165.53 3599.85 4121.84 3558.01 C 3963.87 3406.76 3724.29 3366.41 3531.78 3475.08 C 3421.08 3537.57 3338.61 3645.77 3330.24 3774.50 C 3317.51 3970.37 3407.57 4150.36 3554.70 4274.14 C 3636.86 4343.26 3721.14 4399.34 3818.07 4444.57 L 4098.92 4575.62 C 4138.39 4594.04 4173.99 4616.43 4199.30 4650.64 C 4230.84 4693.27 4229.60 4747.66 4192.40 4786.55 C 4109.01 4873.73 3939.66 4863.49 3825.82 4815.07 L 3707.66 4764.81 C 3608.19 4866.76 3510.31 4975.34 3463.04 5111.12 C 3395.05 5306.42 3303.85 5479.30 3168.16 5635.89 L 2837.34 5987.71 L 2542.22 6308.02 C 2463.83 6393.10 2410.53 6489.61 2360.87 6597.29 Z M 2308.28 5190.13 C 2443.04 5063.56 2537.65 4926.61 2622.35 4778.50 L 2821.37 4368.54 L 2907.98 4191.44 C 2939.32 4127.37 2980.77 4073.28 3028.43 4020.90 C 3008.92 3950.49 2997.66 3885.99 2992.34 3814.04 L 1187.21 3815.84 C 1127.13 3815.90 1078.44 3865.98 1078.36 3923.62 L 1077.57 4438.11 C 1077.48 4498.38 1123.38 4551.57 1187.03 4551.82 L 2212.71 4555.83 C 2275.00 4557.01 2306.62 4602.82 2306.79 4661.47 L 2308.29 5190.14 Z" stroke-linecap="round"></path>
</g>
		<g id="0b6b49cb-dbe6-467f-a5c7-c71547df3017-child-1">
<path style="stroke: rgb(193,193,193); stroke-opacity: 1.00; stroke-width: 0; stroke-dasharray: none; stroke-linecap: butt; stroke-dashoffset: 0; stroke-linejoin: miter; stroke-miterlimit: 4; fill: rgb(243,113,35); fill-opacity: 1.00; fill-rule: nonzero; opacity: 1;" transform="matrix(1.764323 0 0 1.764323 4605.950396 4605.950339) matrix(1 0 0 1 -509.801055 1228.740207)  translate(-2766.963563, -6866.004922)" d="M 3531.42 6942.69 L 3524.84 7582.90 C 3524.44 7621.80 3524.84 7657.50 3514.20 7694.72 C 3456.81 7895.64 3310.52 8060.78 3115.72 8138.33 C 3060.83 8160.18 3004.12 8168.67 2946.21 8172.52 L 2627.94 8193.65 L 2065.53 8199.62 C 2034.51 8199.95 2004.20 8180.29 2003.16 8146.93 C 1990.53 7742.24 2156.39 7362.21 2420.81 7059.10 L 2764.00 6699.39 L 3006.00 6440.34 C 3093.21 6346.98 3152.62 6236.19 3195.87 6115.48 C 3248.71 5967.98 3223.40 5823.76 3250.30 5791.62 C 3316.23 5712.86 3381.24 5637.19 3432.18 5547.72 C 3437.01 5539.24 3441.14 5533.26 3448.99 5532.44 C 3454.65 5531.85 3465.86 5536.07 3468.61 5545.24 C 3486.13 5603.75 3513.28 5660.16 3518.59 5723.44 C 3527.69 5831.84 3533.10 5939.78 3518.48 6048.48 C 3486.73 6284.60 3327.03 6535.04 3161.23 6704.32 L 2796.71 7076.49 C 2559.27 7318.92 2387.51 7550.18 2315.66 7888.50 C 2313.58 7898.31 2316.99 7908.62 2320.31 7913.50 C 2326.44 7922.52 2337.75 7920.29 2349.29 7920.26 L 2824.14 7918.96 C 3012.45 7918.44 3194.92 7795.31 3225.79 7602.48 C 3245.83 7477.30 3232.44 7351.18 3235.53 7225.68 C 3236.82 7173.14 3250.77 7137.17 3289.24 7101.62 L 3481.90 6923.60 C 3490.70 6915.47 3503.77 6915.03 3512.10 6918.55 C 3518.81 6921.38 3531.57 6930.15 3531.44 6942.69 Z" stroke-linecap="round"></path>
</g>
		<g id="0b6b49cb-dbe6-467f-a5c7-c71547df3017-child-2">
<path style="stroke: rgb(193,193,193); stroke-opacity: 1.00; stroke-width: 0; stroke-dasharray: none; stroke-linecap: butt; stroke-dashoffset: 0; stroke-linejoin: miter; stroke-miterlimit: 4; fill: rgb(4,4,4); fill-opacity: 1.00; fill-rule: nonzero; opacity: 1;" transform="matrix(1.764323 0 0 1.764323 4605.950396 4605.950339) matrix(1 0 0 1 440.742595 -1972.150279)  translate(-3717.507213, -3665.114437)" d="M 3682.60 3537.30 C 3758.09 3517.51 3828.49 3561.05 3846.07 3631.28 C 3863.85 3702.30 3823.92 3775.58 3748.30 3794.06 C 3683.07 3810.01 3611.33 3772.72 3590.36 3703.05 C 3570.09 3635.69 3605.66 3557.46 3682.60 3537.30 Z" stroke-linecap="round"></path>
</g>
</g>
</g>

  </svg>